<?xml version="1.0" encoding="utf-8"?>
<!-- Generator: Adobe Illustrator 16.0.0, SVG Export Plug-In . SVG Version: 6.00 Build 0)  -->
<!DOCTYPE svg PUBLIC "-//W3C//DTD SVG 1.1//EN" "http://www.w3.org/Graphics/SVG/1.1/DTD/svg11.dtd">
<svg version="1.1" id="Layer_1" xmlns="http://www.w3.org/2000/svg" xmlns:xlink="http://www.w3.org/1999/xlink" x="0px" y="0px"
	 width="150px" height="100px" viewBox="0 0 150 100" enable-background="new 0 0 150 100" xml:space="preserve" fill="#a3c7e5">
<g>
	<g>
		<path d="M25,47.564v4.632c0,3.013,2.533,5.61,5.547,5.61h67.07L76.345,79.006c-1.03,1.029-1.595,2.328-1.595,3.791
			c0,1.464,0.565,2.836,1.595,3.863l3.272,3.275c1.029,1.027,2.401,1.594,3.864,1.594c1.464,0,2.835-0.565,3.864-1.594l36.06-36.06
			c1.033-1.032,1.599-2.409,1.595-3.881c0.004-1.464-0.562-2.84-1.595-3.874l-36.06-36.056c-1.029-1.029-2.401-1.594-3.864-1.594
			s-2.835,0.569-3.864,1.599l-3.272,3.275c-1.03,1.031-1.595,2.416-1.595,3.879s0.565,2.858,1.595,3.887L97.38,42.192H30.465
			l0.156-0.034C27.607,42.158,25,44.552,25,47.564z"/>
	</g>
</g>
</svg>
